<mxfile host="www.draw.io" modified="2019-11-15T13:59:30.165Z" agent="Mozilla/5.0 (Macintosh; Intel Mac OS X 10_14_6) AppleWebKit/605.1.15 (KHTML, like Gecko) Version/13.0.3 Safari/605.1.15" etag="B9uzFnGQ0bY_MUxC8ErM" version="12.2.6" type="github" pages="1">
  <diagram id="2gda8seSzL7u8lL0bnDK" name="Page-1">
    <mxGraphModel dx="1426" dy="819" grid="1" gridSize="10" guides="1" tooltips="1" connect="1" arrows="1" fold="1" page="1" pageScale="1" pageWidth="1169" pageHeight="827" background="#1A1A1A" math="0" shadow="0">
      <root>
        <mxCell id="0"/>
        <mxCell id="1" parent="0"/>
        <mxCell id="4JZP3q6DADbbQBhFTpOb-53" style="edgeStyle=orthogonalEdgeStyle;rounded=0;jumpStyle=none;orthogonalLoop=1;jettySize=auto;html=1;exitX=0.25;exitY=1;exitDx=0;exitDy=0;entryX=0.5;entryY=0;entryDx=0;entryDy=0;dashed=1;strokeColor=#FFFFFF;fontColor=#FFFFFF;" edge="1" parent="1" source="4JZP3q6DADbbQBhFTpOb-30" target="4JZP3q6DADbbQBhFTpOb-33">
          <mxGeometry relative="1" as="geometry"/>
        </mxCell>
        <mxCell id="4JZP3q6DADbbQBhFTpOb-54" style="edgeStyle=orthogonalEdgeStyle;rounded=0;jumpStyle=none;orthogonalLoop=1;jettySize=auto;html=1;exitX=0.75;exitY=1;exitDx=0;exitDy=0;entryX=0.5;entryY=0;entryDx=0;entryDy=0;dashed=1;strokeColor=#FFFFFF;fontColor=#FFFFFF;" edge="1" parent="1" source="4JZP3q6DADbbQBhFTpOb-30" target="4JZP3q6DADbbQBhFTpOb-32">
          <mxGeometry relative="1" as="geometry"/>
        </mxCell>
        <mxCell id="4JZP3q6DADbbQBhFTpOb-30" value="Recursive function" style="rounded=0;whiteSpace=wrap;html=1;fontColor=#000000;" vertex="1" parent="1">
          <mxGeometry x="240" y="80" width="120" height="40" as="geometry"/>
        </mxCell>
        <mxCell id="4JZP3q6DADbbQBhFTpOb-32" value="Recursive Case" style="rounded=0;whiteSpace=wrap;html=1;fontColor=#000000;" vertex="1" parent="1">
          <mxGeometry x="320" y="160" width="120" height="40" as="geometry"/>
        </mxCell>
        <mxCell id="4JZP3q6DADbbQBhFTpOb-33" value="Base Case" style="rounded=0;whiteSpace=wrap;html=1;fontColor=#000000;" vertex="1" parent="1">
          <mxGeometry x="160" y="160" width="120" height="40" as="geometry"/>
        </mxCell>
      </root>
    </mxGraphModel>
  </diagram>
</mxfile>
